<svg data-v-fde0c5aa="" xmlns="http://www.w3.org/2000/svg" viewBox="0 0 300 300" class="iconLeft"><!----><defs data-v-fde0c5aa=""><!----></defs><rect data-v-fde0c5aa="" fill="transparent" x="0" y="0" width="300px" height="300px" class="logo-background-square"></rect><defs data-v-fde0c5aa=""><!----></defs><g data-v-fde0c5aa="" id="fb56da63-1ba0-4d28-b13a-ede7b2a175cc" fill="#000000" transform="matrix(2.202479912168977,0,0,2.202479912168977,88.0303724329451,134.8799753819555)"><path d="M4.55 1.26L4.55 1.26Q5.57 1.26 6.43 1.75L6.43 1.75L6.43 1.75Q7.28 2.24 7.69 2.93L7.69 2.93L7.69 2.93Q7.74 3.02 7.74 3.15L7.74 3.15L7.74 3.15Q7.74 3.26 7.68 3.35L7.68 3.35L7.68 3.35Q7.62 3.44 7.50 3.50L7.50 3.50L7.50 3.50Q7.45 3.53 7.34 3.53L7.34 3.53L7.34 3.53Q7.08 3.53 6.94 3.32L6.94 3.32L6.94 3.32Q6.12 2.10 4.55 2.10L4.55 2.10L4.55 2.10Q3.39 2.10 2.74 2.63L2.74 2.63L2.74 2.63Q2.09 3.15 2.09 4.09L2.09 4.09L2.09 4.09Q2.09 4.87 2.73 5.40L2.73 5.40L2.73 5.40Q3.37 5.94 4.72 6.16L4.72 6.16L4.72 6.16Q6.48 6.45 7.29 7.24L7.29 7.24L7.29 7.24Q8.11 8.04 8.11 9.32L8.11 9.32L8.11 9.32Q8.11 10.29 7.68 11.00L7.68 11.00L7.68 11.00Q7.25 11.72 6.48 12.10L6.48 12.10L6.48 12.10Q5.70 12.47 4.68 12.47L4.68 12.47L4.68 12.47Q3.36 12.47 2.39 11.93L2.39 11.93L2.39 11.93Q1.43 11.40 0.95 10.46L0.95 10.46L0.95 10.46Q0.91 10.37 0.91 10.29L0.91 10.29L0.91 10.29Q0.91 10.12 1.03 10.01L1.03 10.01L1.03 10.01Q1.15 9.90 1.34 9.90L1.34 9.90L1.34 9.90Q1.62 9.90 1.75 10.16L1.75 10.16L1.75 10.16Q2.13 10.86 2.88 11.25L2.88 11.25L2.88 11.25Q3.63 11.63 4.68 11.63L4.68 11.63L4.68 11.63Q5.88 11.63 6.57 11.03L6.57 11.03L6.57 11.03Q7.27 10.43 7.27 9.32L7.27 9.32L7.27 9.32Q7.27 8.37 6.59 7.75L6.59 7.75L6.59 7.75Q5.91 7.13 4.58 6.94L4.58 6.94L4.58 6.94Q3.02 6.72 2.14 5.93L2.14 5.93L2.14 5.93Q1.25 5.14 1.25 4.00L1.25 4.00L1.25 4.00Q1.25 3.19 1.66 2.57L1.66 2.57L1.66 2.57Q2.07 1.95 2.82 1.60L2.82 1.60L2.82 1.60Q3.57 1.26 4.55 1.26L4.55 1.26ZM17.01 11.58L17.01 11.58Q17.19 11.58 17.31 11.68L17.31 11.68L17.31 11.68Q17.43 11.79 17.43 11.96L17.43 11.96L17.43 11.96Q17.43 12.12 17.31 12.23L17.31 12.23L17.31 12.23Q17.19 12.33 17.01 12.33L17.01 12.33L10.84 12.33L10.84 12.33Q10.67 12.33 10.54 12.21L10.54 12.21L10.54 12.21Q10.42 12.10 10.42 11.91L10.42 11.91L10.42 1.82L10.42 1.82Q10.42 1.64 10.54 1.52L10.54 1.52L10.54 1.52Q10.67 1.40 10.84 1.40L10.84 1.40L10.84 1.40Q11.02 1.40 11.14 1.52L11.14 1.52L11.14 1.52Q11.26 1.64 11.26 1.82L11.26 1.82L11.26 11.58L17.01 11.58ZM27.40 11.73L27.40 11.73Q27.44 11.82 27.44 11.91L27.44 11.91L27.44 11.91Q27.44 12.08 27.31 12.21L27.31 12.21L27.31 12.21Q27.19 12.33 27.02 12.33L27.02 12.33L27.02 12.33Q26.74 12.33 26.63 12.07L26.63 12.07L25.59 9.59L19.89 9.59L18.86 12.07L18.86 12.07Q18.76 12.33 18.47 12.33L18.47 12.33L18.47 12.33Q18.27 12.33 18.16 12.21L18.16 12.21L18.16 12.21Q18.05 12.08 18.05 11.91L18.05 11.91L18.05 11.91Q18.05 11.82 18.09 11.73L18.09 11.73L22.33 1.69L22.33 1.69Q22.44 1.40 22.74 1.40L22.74 1.40L22.74 1.40Q23.02 1.40 23.14 1.69L23.14 1.69L27.40 11.73ZM20.22 8.83L25.27 8.83L22.74 2.79L20.22 8.83ZM33.94 1.26L33.94 1.26Q35.90 1.26 37.39 2.51L37.39 2.51L37.39 2.51Q37.52 2.60 37.52 2.79L37.52 2.79L37.52 2.79Q37.52 2.95 37.41 3.09L37.41 3.09L37.41 3.09Q37.30 3.22 37.10 3.22L37.10 3.22L37.10 3.22Q36.95 3.22 36.75 3.05L36.75 3.05L36.75 3.05Q35.69 2.10 33.94 2.10L33.94 2.10L33.94 2.10Q32.70 2.10 31.63 2.76L31.63 2.76L31.63 2.76Q30.56 3.42 29.93 4.51L29.93 4.51L29.93 4.51Q29.30 5.61 29.30 6.86L29.30 6.86L29.30 6.86Q29.30 8.15 29.93 9.25L29.93 9.25L29.93 9.25Q30.55 10.35 31.62 10.99L31.62 10.99L31.62 10.99Q32.69 11.63 33.94 11.63L33.94 11.63L33.94 11.63Q35.59 11.63 36.83 10.61L36.83 10.61L36.83 10.61Q36.93 10.54 37.04 10.54L37.04 10.54L37.04 10.54Q37.21 10.54 37.34 10.67L37.34 10.67L37.34 10.67Q37.48 10.79 37.48 10.98L37.48 10.98L37.48 10.98Q37.48 11.16 37.38 11.27L37.38 11.27L37.38 11.27Q36.18 12.47 33.94 12.47L33.94 12.47L33.94 12.47Q32.47 12.47 31.21 11.71L31.21 11.71L31.21 11.71Q29.95 10.95 29.20 9.65L29.20 9.65L29.20 9.65Q28.46 8.36 28.46 6.86L28.46 6.86L28.46 6.86Q28.46 5.36 29.20 4.07L29.20 4.07L29.20 4.07Q29.93 2.79 31.18 2.02L31.18 2.02L31.18 2.02Q32.44 1.26 33.94 1.26L33.94 1.26ZM40.60 11.91L40.60 11.91Q40.60 12.10 40.48 12.21L40.48 12.21L40.48 12.21Q40.36 12.33 40.18 12.33L40.18 12.33L40.18 12.33Q40.01 12.33 39.89 12.21L39.89 12.21L39.89 12.21Q39.76 12.10 39.76 11.91L39.76 11.91L39.76 1.82L39.76 1.82Q39.76 1.64 39.89 1.52L39.89 1.52L39.89 1.52Q40.01 1.40 40.18 1.40L40.18 1.40L40.18 1.40Q40.36 1.40 40.48 1.52L40.48 1.52L40.48 1.52Q40.60 1.64 40.60 1.82L40.60 1.82L40.60 6.96L46.03 1.53L46.03 1.53Q46.19 1.40 46.35 1.40L46.35 1.40L46.35 1.40Q46.54 1.40 46.66 1.53L46.66 1.53L46.66 1.53Q46.77 1.65 46.77 1.82L46.77 1.82L46.77 1.82Q46.77 1.97 46.65 2.13L46.65 2.13L42.63 6.15L46.69 11.66L46.69 11.66Q46.77 11.79 46.77 11.91L46.77 11.91L46.77 11.91Q46.77 12.08 46.65 12.21L46.65 12.21L46.65 12.21Q46.52 12.33 46.37 12.33L46.37 12.33L46.37 12.33Q46.13 12.33 46.00 12.15L46.00 12.15L42.01 6.76L40.60 8.18L40.60 11.91ZM57.04 11.73L57.04 11.73Q57.08 11.82 57.08 11.91L57.08 11.91L57.08 11.91Q57.08 12.08 56.95 12.21L56.95 12.21L56.95 12.21Q56.83 12.33 56.66 12.33L56.66 12.33L56.66 12.33Q56.38 12.33 56.27 12.07L56.27 12.07L55.23 9.59L49.53 9.59L48.50 12.07L48.50 12.07Q48.40 12.33 48.10 12.33L48.10 12.33L48.10 12.33Q47.91 12.33 47.80 12.21L47.80 12.21L47.80 12.21Q47.68 12.08 47.68 11.91L47.68 11.91L47.68 11.91Q47.68 11.82 47.73 11.73L47.73 11.73L51.97 1.69L51.97 1.69Q52.08 1.40 52.37 1.40L52.37 1.40L52.37 1.40Q52.65 1.40 52.78 1.69L52.78 1.69L57.04 11.73ZM49.85 8.83L54.91 8.83L52.37 2.79L49.85 8.83ZM65.25 11.58L65.25 11.58Q65.44 11.58 65.55 11.68L65.55 11.68L65.55 11.68Q65.67 11.79 65.67 11.96L65.67 11.96L65.67 11.96Q65.67 12.12 65.55 12.23L65.55 12.23L65.55 12.23Q65.44 12.33 65.25 12.33L65.25 12.33L59.08 12.33L59.08 12.33Q58.91 12.33 58.79 12.21L58.79 12.21L58.79 12.21Q58.66 12.10 58.66 11.91L58.66 11.91L58.66 1.82L58.66 1.82Q58.66 1.64 58.79 1.52L58.79 1.52L58.79 1.52Q58.91 1.40 59.08 1.40L59.08 1.40L59.08 1.40Q59.26 1.40 59.38 1.52L59.38 1.52L59.38 1.52Q59.50 1.64 59.50 1.82L59.50 1.82L59.50 11.58L65.25 11.58ZM72.48 1.26L72.48 1.26Q74.05 1.26 75.33 1.99L75.33 1.99L75.33 1.99Q76.61 2.73 77.34 4.01L77.34 4.01L77.34 4.01Q78.08 5.29 78.08 6.86L78.08 6.86L78.08 6.86Q78.08 8.44 77.34 9.72L77.34 9.72L77.34 9.72Q76.61 11.00 75.33 11.74L75.33 11.74L75.33 11.74Q74.05 12.47 72.48 12.47L72.48 12.47L72.48 12.47Q70.90 12.47 69.61 11.74L69.61 11.74L69.61 11.74Q68.33 11.00 67.60 9.72L67.60 9.72L67.60 9.72Q66.86 8.44 66.86 6.86L66.86 6.86L66.86 6.86Q66.86 5.29 67.60 4.01L67.60 4.01L67.60 4.01Q68.33 2.73 69.61 1.99L69.61 1.99L69.61 1.99Q70.90 1.26 72.48 1.26L72.48 1.26ZM72.48 2.10L72.48 2.10Q71.13 2.10 70.04 2.72L70.04 2.72L70.04 2.72Q68.95 3.35 68.33 4.44L68.33 4.44L68.33 4.44Q67.70 5.53 67.70 6.86L67.70 6.86L67.70 6.86Q67.70 8.20 68.33 9.30L68.33 9.30L68.33 9.30Q68.95 10.39 70.04 11.01L70.04 11.01L70.04 11.01Q71.13 11.63 72.48 11.63L72.48 11.63L72.48 11.63Q73.81 11.63 74.90 11.01L74.90 11.01L74.90 11.01Q75.99 10.39 76.62 9.30L76.62 9.30L76.62 9.30Q77.24 8.20 77.24 6.86L77.24 6.86L77.24 6.86Q77.24 5.53 76.62 4.44L76.62 4.44L76.62 4.44Q75.99 3.35 74.90 2.72L74.90 2.72L74.90 2.72Q73.81 2.10 72.48 2.10L72.48 2.10Z"></path></g><defs data-v-fde0c5aa=""><linearGradient data-v-fde0c5aa="" gradientTransform="rotate(25)" id="0a175ccd-2adb-4dde-aab0-8e8aef479f58" x1="0%" y1="0%" x2="100%" y2="0%"><stop data-v-fde0c5aa="" offset="0%" stop-color="#0D7CE9" stop-opacity="1"></stop><stop data-v-fde0c5aa="" offset="100%" stop-color="#15CFF1" stop-opacity="1"></stop></linearGradient></defs><g data-v-fde0c5aa="" id="a723c13b-3207-477f-9b3f-e6f6466a15ee" stroke="none" fill="url(#0a175ccd-2adb-4dde-aab0-8e8aef479f58)" transform="matrix(0.4629356023714886,0,0,0.4629356023714886,35.370521242122344,126.8530525567936)"><path d="M88.21 47.745l-9.597-23.167c-4.974-12.005-18.86-17.76-30.869-12.79l-23.167 9.6C12.571 26.361 6.816 40.251 11.79 52.257l9.597 23.17C26.36 87.432 40.251 93.184 52.256 88.21l23.171-9.597c12.002-4.973 17.757-18.86 12.783-30.868zm-15.336 24.71l-23.167 9.596a16.761 16.761 0 0 1-6.433 1.283c-6.92 0-13.099-4.105-15.729-10.459l-9.597-23.167c-1.726-4.164-1.716-8.77.026-12.972 1.738-4.203 4.99-7.464 9.15-9.189l23.17-9.6a16.696 16.696 0 0 1 6.423-1.279c6.927 0 13.103 4.105 15.735 10.462l9.597 23.164c3.579 8.643-.535 18.58-9.175 22.161z"></path><path d="M75.56 52.042l-2.552-6.16-10.319 4.274-3.824-9.238 10.315-4.277-2.552-6.159-10.313 4.274-4.274-10.316-6.159 2.552 4.274 10.315-9.238 3.825-4.274-10.313-6.158 2.549 4.273 10.315-10.319 4.276 2.552 6.159 10.319-4.274 3.824 9.239-10.318 4.273 2.552 6.159 10.319-4.274 4.273 10.315 6.159-2.549-4.274-10.318 9.235-3.825 4.271 10.319 6.162-2.553-4.273-10.315 10.319-4.273zM47.295 56.53l-3.825-9.238 9.235-3.825 3.825 9.242-9.235 3.821z"></path></g><!----></svg>