<svg data-v-423bf9ae="" xmlns="http://www.w3.org/2000/svg" viewBox="0 0 59.99988555862364 60" class="icon"><!----><!----><!----><!----><g data-v-423bf9ae="" id="a53e9ac8-f144-40bb-bf35-013257acbf20" transform="matrix(0.7500030040861293,0,0,0.7500030040861293,-7.5002288825235155,-7.500422240991021)" stroke="none" fill="white"><path d="M88.21 47.745l-9.597-23.167c-4.974-12.005-18.86-17.76-30.869-12.79l-23.167 9.6C12.571 26.361 6.816 40.251 11.79 52.257l9.597 23.17C26.36 87.432 40.251 93.184 52.256 88.21l23.171-9.597c12.002-4.973 17.757-18.86 12.783-30.868zm-15.336 24.71l-23.167 9.596a16.761 16.761 0 0 1-6.433 1.283c-6.92 0-13.099-4.105-15.729-10.459l-9.597-23.167c-1.726-4.164-1.716-8.77.026-12.972 1.738-4.203 4.99-7.464 9.15-9.189l23.17-9.6a16.696 16.696 0 0 1 6.423-1.279c6.927 0 13.103 4.105 15.735 10.462l9.597 23.164c3.579 8.643-.535 18.58-9.175 22.161z"></path><path d="M75.56 52.042l-2.552-6.16-10.319 4.274-3.824-9.238 10.315-4.277-2.552-6.159-10.313 4.274-4.274-10.316-6.159 2.552 4.274 10.315-9.238 3.825-4.274-10.313-6.158 2.549 4.273 10.315-10.319 4.276 2.552 6.159 10.319-4.274 3.824 9.239-10.318 4.273 2.552 6.159 10.319-4.274 4.273 10.315 6.159-2.549-4.274-10.318 9.235-3.825 4.271 10.319 6.162-2.553-4.273-10.315 10.319-4.273zM47.295 56.53l-3.825-9.238 9.235-3.825 3.825 9.242-9.235 3.821z"></path></g><!----></svg>